PathFileType  4	(X/Y/Z) C:\Users\antoi\Documents\MyRepositories\mobilecap\ResultsAnalysis
DataRate	CameraRate	NumFrames	NumMarkers	Units	OrigDataRate	OrigDataStartFrame	OrigNumFrames
100.0	100.0	6	55	mm	100.0	177	704
Frame#	Time	r_knee			r_shank_antsup			r_ankle			r_calc			r_5meta			r_toe			L_knee			L_shank_antsup			L_ankle			L_calc			L_5meta			L_toe			r_mknee			r_mankle			L_mknee			L_mankle			r_sh2			r_sh3			r_sh4			L_sh2			L_sh3			r_thigh1			r_thigh2			r_thigh3			r_thigh4			r_thigh5			L_thigh1			L_thigh2			L_thigh3			L_thigh4			r.ASIS			r.PSIS			L.ASIS			L.PSIS			C7			R_Shoulder			L_Shoulder			R_Sternum			L_Sternum			R_humerus			R_elbow_med			R_elbow_lat			R_forearm			R_wrist_radius			R_wrist_ulna			L_humerus			L_elbow_med			L_elbow_lat			L_forearm			L_wrist_radius			L_wrist_ulna			R_HJC			L_HJC			R_HJC_reg			L_HJC_reg			
		X1	Y1	Z1	X2	Y2	Z2	X3	Y3	Z3	X4	Y4	Z4	X5	Y5	Z5	X6	Y6	Z6	X7	Y7	Z7	X8	Y8	Z8	X9	Y9	Z9	X10	Y10	Z10	X11	Y11	Z11	X12	Y12	Z12	X13	Y13	Z13	X14	Y14	Z14	X15	Y15	Z15	X16	Y16	Z16	X17	Y17	Z17	X18	Y18	Z18	X19	Y19	Z19	X20	Y20	Z20	X21	Y21	Z21	X22	Y22	Z22	X23	Y23	Z23	X24	Y24	Z24	X25	Y25	Z25	X26	Y26	Z26	X27	Y27	Z27	X28	Y28	Z28	X29	Y29	Z29	X30	Y30	Z30	X31	Y31	Z31	X32	Y32	Z32	X33	Y33	Z33	X34	Y34	Z34	X35	Y35	Z35	X36	Y36	Z36	X37	Y37	Z37	X38	Y38	Z38	X39	Y39	Z39	X40	Y40	Z40	X41	Y41	Z41	X42	Y42	Z42	X43	Y43	Z43	X44	Y44	Z44	X45	Y45	Z45	X46	Y46	Z46	X47	Y47	Z47	X48	Y48	Z48	X49	Y49	Z49	X50	Y50	Z50	X51	Y51	Z51	X52	Y52	Z52	X53	Y53	Z53	X54	Y54	Z54	X55	Y55	Z55	

177	1.76000000	-212.41914	500.85973	-442.22732	-181.48036	457.68226	-447.91853	-262.00813	96.20115	-469.80812	-317.83412	59.02008	-522.99960	-142.59301	40.81823	-425.91150	-96.07872	60.56296	-478.01800	-208.28839	497.82325	-784.71369	-192.70022	415.28993	-796.23767	-262.36129	98.24217	-752.18721	-322.69077	57.65524	-699.20141	-145.63121	41.48383	-781.76312	-101.05146	59.14146	-728.87793	-221.33050	489.09754	-566.34971	-227.65119	108.99322	-547.27609	-209.29924	485.92414	-658.43266	-232.13472	110.93097	-672.26719	-189.32050	342.47966	-459.03752	-250.52213	459.13204	-412.46769	-257.77946	342.38270	-410.49345	-279.43276	432.03275	-807.72893	-289.60771	309.85048	-803.44893	-79.40444	783.96850	-508.27216	-88.62417	672.95281	-495.71414	-115.96648	660.68073	-433.52579	-144.65392	800.92770	-418.06546	-160.52282	687.43311	-408.16204	-121.44815	821.41722	-789.64670	-135.51105	677.93715	-799.82693	-234.79623	827.37112	-787.37460	-246.99195	688.45697	-782.12068	-84.23263	969.89385	-484.90901	-273.20504	1000.38622	-562.23348	-81.88736	957.33863	-723.03431	-273.80224	999.47559	-661.49529	-262.85443	1457.08481	-617.79636	-200.06295	1431.59813	-453.15400	-213.52009	1423.95941	-777.36996	-134.15700	1384.52653	-598.89747	-134.84936	1383.00303	-636.76831	-185.81898	1196.97661	-360.43746	-228.43344	1103.43607	-398.94261	-212.55555	1108.93713	-340.53093	-158.52232	984.83060	-294.63594	-116.19155	886.20033	-286.39790	-158.17181	882.89532	-272.36460	-214.18658	1196.87460	-870.64052	-219.81109	1091.46344	-816.16475	-235.63828	1096.94118	-873.92924	-189.99979	979.01903	-938.24788	-141.24478	882.43181	-961.81061	-181.28859	871.12035	-954.62128	-157.30336	886.75737	-519.00016	-167.64098	888.07759	-709.38653	-151.71394	892.29923	-516.90487	-152.66080	890.85537	-674.28398	
178	1.77000000	-212.41571	500.96760	-442.10228	-181.45324	457.67215	-447.89016	-261.99027	96.22539	-469.76317	-317.83442	59.00468	-523.00893	-142.58962	40.80583	-425.92341	-96.05812	60.59629	-477.97815	-208.26767	497.81765	-784.72779	-192.70330	415.26549	-796.21609	-262.36831	98.25069	-752.18631	-322.67585	57.62620	-699.17541	-145.64946	41.46648	-781.74692	-101.04128	59.14284	-728.90500	-221.32785	489.09686	-566.34271	-227.65648	108.97860	-547.28218	-209.29405	485.94074	-658.43507	-232.13532	110.92542	-672.26244	-189.34949	342.59576	-459.09039	-250.53823	459.04530	-412.50958	-257.79844	342.49620	-410.28954	-279.41998	432.02403	-807.72339	-289.60405	309.82880	-803.37672	-79.40310	783.95503	-508.26127	-88.58935	672.91751	-495.67138	-115.92792	660.69209	-433.45335	-144.66367	800.85252	-418.05870	-160.55094	687.39125	-408.09925	-121.44792	821.41903	-789.64521	-135.49382	677.90443	-799.82227	-234.77181	827.35230	-787.36603	-246.98468	688.49136	-782.02814	-84.19184	969.91102	-484.88805	-273.19260	1000.40426	-562.23627	-81.87036	957.33132	-723.03516	-273.82453	999.47792	-661.47516	-262.85302	1457.06636	-617.80884	-200.07537	1431.63265	-453.13578	-213.49243	1423.98263	-777.36780	-134.14457	1384.54808	-598.90597	-134.84814	1383.00852	-636.78239	-185.77325	1197.00291	-360.41914	-228.41502	1103.46632	-398.91144	-212.52368	1108.93603	-340.50540	-158.43981	984.87220	-294.62944	-116.13890	886.22587	-286.38612	-158.10041	882.94024	-272.30914	-214.14912	1196.88017	-870.65716	-219.84325	1091.47217	-816.19447	-235.59417	1096.93174	-873.93749	-189.95064	979.00560	-938.21794	-141.19482	882.43076	-961.81707	-181.27362	871.13471	-954.65963	-157.28452	886.77545	-518.98119	-167.63689	888.07314	-709.36691	-151.66884	892.31777	-516.85170	-152.67104	890.84849	-674.24528	
179	1.78000000	-212.42404	501.00287	-442.06287	-181.42560	457.69615	-447.86660	-261.99177	96.22425	-469.74624	-317.83335	58.99749	-523.01505	-142.58895	40.80415	-425.93879	-96.06602	60.59205	-477.96207	-208.25292	497.79967	-784.72426	-192.68012	415.27026	-796.23791	-262.38725	98.27537	-752.18764	-322.67167	57.60831	-699.16914	-145.63029	41.46007	-781.77074	-101.03372	59.13617	-728.91951	-221.32910	489.10098	-566.33777	-227.65870	108.95330	-547.28560	-209.29561	485.94259	-658.42658	-232.14267	110.92787	-672.25478	-189.34355	342.45401	-459.02981	-250.50091	458.98843	-412.51459	-257.77800	342.57256	-410.16639	-279.40659	432.01186	-807.73511	-289.58364	309.80334	-803.34660	-79.43745	783.91110	-508.28677	-88.62365	672.90489	-495.73455	-115.89374	660.71666	-433.37028	-144.66640	800.85598	-418.01639	-160.56794	687.45566	-408.09144	-121.45315	821.42424	-789.64993	-135.49268	677.89488	-799.82241	-234.74378	827.32330	-787.34054	-246.94779	688.49450	-782.03449	-84.13702	969.91265	-484.85474	-273.18108	1000.37956	-562.19905	-81.85543	957.32126	-723.03599	-273.81913	999.45718	-661.45926	-262.85709	1457.05069	-617.82210	-200.09269	1431.65785	-453.14538	-213.46875	1423.99469	-777.36786	-134.12871	1384.56772	-598.90880	-134.83008	1383.03491	-636.78944	-185.74209	1197.02286	-360.40783	-228.36971	1103.47771	-398.91684	-212.48982	1108.93330	-340.50323	-158.38652	984.91232	-294.62426	-116.08778	886.29346	-286.37625	-158.01308	882.96147	-272.24187	-214.11176	1196.88242	-870.65691	-219.86184	1091.47892	-816.18867	-235.55465	1096.93338	-873.96575	-189.89151	979.00915	-938.23473	-141.15407	882.43439	-961.84272	-181.21291	871.12139	-954.62446	-157.24218	886.76788	-518.95837	-167.61571	888.05690	-709.34299	-151.62217	892.28791	-516.82282	-152.63402	890.82502	-674.23904	
180	1.79000000	-212.41906	500.94423	-442.11998	-181.44309	457.70616	-447.88094	-262.00207	96.19101	-469.76404	-317.82717	59.00569	-523.01166	-142.59261	40.80846	-425.94000	-96.10867	60.52691	-478.00767	-208.24045	497.79115	-784.71844	-192.65354	415.28337	-796.26644	-262.40159	98.29333	-752.18915	-322.67596	57.59735	-699.16780	-145.61200	41.45656	-781.80013	-101.03888	59.11942	-728.90820	-221.33003	489.10449	-566.33381	-227.66227	108.94317	-547.28894	-209.29342	485.93508	-658.42029	-232.14952	110.92760	-672.25073	-189.31068	342.24864	-458.93596	-250.50092	459.04217	-412.49225	-257.73797	342.56007	-410.18183	-279.39747	432.00476	-807.73664	-289.56439	309.80391	-803.41291	-79.42761	783.89508	-508.24428	-88.68400	672.91668	-495.81875	-115.90567	660.72971	-433.34876	-144.65624	800.88179	-417.99520	-160.49932	687.54472	-408.09776	-121.44613	821.42791	-789.64382	-135.47918	677.89141	-799.80807	-234.70919	827.29657	-787.30335	-246.90580	688.45361	-782.14150	-84.10855	969.87961	-484.86934	-273.17943	1000.35423	-562.16307	-81.83725	957.32059	-723.03323	-273.77894	999.45202	-661.45443	-262.87143	1457.04335	-617.82653	-200.06737	1431.67055	-453.19116	-213.44695	1423.99191	-777.39524	-134.12483	1384.57462	-598.92062	-134.81031	1383.05257	-636.80402	-185.72289	1197.05452	-360.37984	-228.29860	1103.47693	-398.91506	-212.44544	1108.95070	-340.49699	-158.34561	984.92581	-294.60005	-116.05798	886.34316	-286.38088	-157.91387	882.98372	-272.16473	-214.06614	1196.88131	-870.64407	-219.76540	1091.50412	-816.14728	-235.50977	1096.96164	-874.00119	-189.82800	979.03161	-938.30180	-141.10374	882.43514	-961.84281	-181.17951	871.13132	-954.64387	-157.21587	886.73801	-518.96688	-167.59829	888.05664	-709.35082	-151.62528	892.25204	-516.87651	-152.57569	890.82173	-674.28080	
181	1.80000000	-212.39037	500.92829	-442.14968	-181.46063	457.67974	-447.90190	-262.00689	96.13948	-469.80474	-317.81768	59.00786	-523.01086	-142.58768	40.80790	-425.93034	-96.13362	60.47925	-478.04860	-208.22994	497.79929	-784.71635	-192.64149	415.28419	-796.26642	-262.40332	98.29178	-752.18762	-322.67069	57.58030	-699.13674	-145.62287	41.44943	-781.80445	-101.04456	59.11189	-728.89338	-221.33008	489.10143	-566.32975	-227.66322	108.94880	-547.28564	-209.29149	485.93313	-658.43132	-232.15036	110.92108	-672.25245	-189.28080	342.20924	-458.90097	-250.54998	459.09088	-412.45485	-257.71046	342.56661	-410.14058	-279.39999	432.00148	-807.71465	-289.57204	309.81852	-803.44872	-79.38507	783.90591	-508.18015	-88.70829	672.92192	-495.84391	-115.90600	660.73627	-433.34788	-144.64191	800.86671	-418.00348	-160.39168	687.54488	-408.04655	-121.43888	821.41856	-789.63043	-135.44896	677.88705	-799.78728	-234.68236	827.29915	-787.29780	-246.88563	688.41664	-782.20575	-84.11857	969.83757	-484.90099	-273.18569	1000.36062	-562.16494	-81.81483	957.32073	-723.02516	-273.74087	999.48121	-661.46040	-262.88082	1457.03796	-617.82610	-199.98927	1431.68469	-453.23867	-213.41920	1423.98882	-777.42620	-134.14021	1384.57476	-598.95855	-134.79763	1383.05882	-636.81779	-185.70243	1197.10231	-360.34315	-228.27050	1103.52214	-398.90938	-212.38781	1108.97581	-340.46277	-158.31143	984.93052	-294.58106	-116.03800	886.35349	-286.37000	-157.84783	883.01086	-272.10934	-214.02259	1196.88128	-870.63553	-219.68546	1091.52523	-816.12418	-235.44587	1096.99561	-874.01415	-189.77553	979.04694	-938.35171	-141.02552	882.44837	-961.85071	-181.19965	871.16260	-954.77010	-157.23135	886.71475	-518.99164	-167.59630	888.07306	-709.37625	-151.66453	892.23190	-516.94922	-152.54448	890.83803	-674.32683	
182	1.81000000	-212.36698	500.98317	-442.09911	-181.43839	457.65012	-447.89884	-261.98889	96.12440	-469.82623	-317.81363	58.99666	-523.01669	-142.56802	40.80042	-425.92410	-96.10513	60.52313	-478.00536	-208.21878	497.80593	-784.71432	-192.63317	415.28654	-796.25790	-262.40025	98.28171	-752.18949	-322.66156	57.57148	-699.11261	-145.63256	41.45079	-781.80090	-101.04217	59.12035	-728.89976	-221.32996	489.09907	-566.32935	-227.66221	108.96108	-547.27652	-209.28958	485.93072	-658.42900	-232.14676	110.91863	-672.25485	-189.27054	342.24238	-458.89878	-250.54575	459.06603	-412.42032	-257.75300	342.57295	-410.06131	-279.38806	432.01075	-807.71784	-289.58425	309.81079	-803.38174	-79.36110	783.92020	-508.16979	-88.66253	672.91930	-495.77872	-115.87448	660.73467	-433.32299	-144.63713	800.82898	-418.01151	-160.36100	687.50668	-407.98993	-121.42962	821.40629	-789.61637	-135.41955	677.88580	-799.77358	-234.66303	827.30902	-787.31436	-246.87356	688.42207	-782.15438	-84.11019	969.87022	-484.86370	-273.16982	1000.36965	-562.16383	-81.79501	957.31223	-723.01285	-273.71465	999.49538	-661.46756	-262.87616	1457.03844	-617.83707	-199.94543	1431.69199	-453.27723	-213.39016	1423.99589	-777.43244	-134.14131	1384.59356	-598.98975	-134.78855	1383.06699	-636.82253	-185.67829	1197.14674	-360.33771	-228.27883	1103.58128	-398.92139	-212.32731	1109.00708	-340.41904	-158.27702	984.95461	-294.57222	-115.97344	886.38499	-286.29557	-157.82149	883.04539	-272.06129	-213.98496	1196.87685	-870.63221	-219.71348	1091.55114	-816.10938	-235.38826	1097.00674	-874.00350	-189.73403	979.05199	-938.36746	-140.93831	882.50289	-961.94256	-181.19190	871.17779	-954.85848	-157.22281	886.73889	-518.96548	-167.57069	888.07048	-709.35120	-151.64918	892.22131	-516.92628	-152.51272	890.83557	-674.32205	
